<svg xmlns="http://www.w3.org/2000/svg" width="70" height="66" fill="none" viewBox="0 0 70 66">
  <g filter="url(#a)">
    <path fill="#fff" d="M63.875 53.625h-2.063V26.812a4.125 4.125 0 0 0-4.124-4.125h-16.5V10.313a4.125 4.125 0 0 0-4.126-4.124h-24.75a4.125 4.125 0 0 0-4.124 4.125v43.312H6.124a2.062 2.062 0 0 0 0 4.125h57.75a2.062 2.062 0 0 0 0-4.125ZM32.937 35.062a2.062 2.062 0 0 1-2.062 2.063h-8.25a2.062 2.062 0 0 1 0-4.125h8.25a2.062 2.062 0 0 1 2.063 2.063ZM18.5 16.5h8.25a2.062 2.062 0 0 1 0 4.125H18.5a2.062 2.062 0 0 1 0-4.125Zm0 26.813h8.25a2.062 2.062 0 0 1 0 4.124H18.5a2.062 2.062 0 0 1 0-4.124Zm22.688-16.5h16.5v26.812h-16.5V26.812Z"/>
    <path fill="#fff" d="M51.5 43.313h-4.125a2.062 2.062 0 0 0 0 4.124H51.5a2.062 2.062 0 0 0 0-4.124Zm-4.125-6.188H51.5a2.062 2.062 0 0 0 0-4.125h-4.125a2.062 2.062 0 0 0 0 4.125Z"/>
  </g>
  <defs>
    <filter id="a" width="74" height="74" x="-2" y="0" color-interpolation-filters="sRGB" filterUnits="userSpaceOnUse">
      <feFlood flood-opacity="0" result="BackgroundImageFix"/>
      <feColorMatrix in="SourceAlpha" result="hardAlpha" values="0 0 0 0 0 0 0 0 0 0 0 0 0 0 0 0 0 0 127 0"/>
      <feOffset dy="4"/>
      <feGaussianBlur stdDeviation="2"/>
      <feComposite in2="hardAlpha" operator="out"/>
      <feColorMatrix values="0 0 0 0 0 0 0 0 0 0 0 0 0 0 0 0 0 0 0.25 0"/>
      <feBlend in2="BackgroundImageFix" result="effect1_dropShadow_35446_26755"/>
      <feBlend in="SourceGraphic" in2="effect1_dropShadow_35446_26755" result="shape"/>
    </filter>
  </defs>
</svg>
